<?xml version="1.0" encoding="UTF-8" standalone="no"?>
<svg xmlns:dc="http://purl.org/dc/elements/1.1/" xmlns:cc="http://creativecommons.org/ns#" xmlns:rdf="http://www.w3.org/1999/02/22-rdf-syntax-ns#" xmlns:svg="http://www.w3.org/2000/svg" xmlns="http://www.w3.org/2000/svg" xmlns:sodipodi="http://sodipodi.sourceforge.net/DTD/sodipodi-0.dtd" xmlns:inkscape="http://www.inkscape.org/namespaces/inkscape" sodipodi:docname="logo.svg" inkscape:version="1.0 (4035a4fb49, 2020-05-01)" id="svg8" version="1.1" viewBox="0 0 210 297" height="297mm" width="210mm">
  <defs id="defs2" />
  <sodipodi:namedview inkscape:window-maximized="1" inkscape:window-y="37" inkscape:window-x="0" inkscape:window-height="988" inkscape:window-width="1920" showgrid="false" inkscape:document-rotation="0" inkscape:current-layer="layer1" inkscape:document-units="mm" inkscape:cy="322.8618" inkscape:cx="374.19018" inkscape:zoom="7.9195959" inkscape:pageshadow="2" inkscape:pageopacity="0.0" borderopacity="1.0" bordercolor="#666666" pagecolor="#ffffff" id="base" />
  <metadata id="metadata5">
    <rdf:RDF>
      <cc:Work rdf:about="">
        <dc:format>image/svg+xml</dc:format>
        <dc:type rdf:resource="http://purl.org/dc/dcmitype/StillImage" />
        <dc:title></dc:title>
      </cc:Work>
    </rdf:RDF>
  </metadata>
  <g id="layer1" inkscape:groupmode="layer" inkscape:label="Warstwa 1">
    <rect inkscape:export-ydpi="491.51999" inkscape:export-xdpi="491.51999" style="fill:#333333;stroke:none;stroke-width:0.162468;stroke-linecap:round;stroke-miterlimit:4;stroke-dasharray:none;stroke-dashoffset:0;stroke-opacity:1" id="rect891" width="13.229167" height="13.229167" x="83.22052" y="75.115799" />
    <path id="path902" style="color:#000000;font-style:normal;font-variant:normal;font-weight:normal;font-stretch:normal;font-size:medium;line-height:normal;font-family:sans-serif;font-variant-ligatures:normal;font-variant-position:normal;font-variant-caps:normal;font-variant-numeric:normal;font-variant-alternates:normal;font-variant-east-asian:normal;font-feature-settings:normal;font-variation-settings:normal;text-indent:0;text-align:start;text-decoration:none;text-decoration-line:none;text-decoration-style:solid;text-decoration-color:#000000;letter-spacing:normal;word-spacing:normal;text-transform:none;writing-mode:lr-tb;direction:ltr;text-orientation:mixed;dominant-baseline:auto;baseline-shift:baseline;text-anchor:start;white-space:normal;shape-padding:0;shape-margin:0;inline-size:0;clip-rule:nonzero;display:inline;overflow:visible;visibility:visible;isolation:auto;mix-blend-mode:normal;color-interpolation:sRGB;color-interpolation-filters:linearRGB;solid-color:#000000;solid-opacity:1;vector-effect:none;fill:#ffffff;fill-opacity:1;fill-rule:nonzero;stroke:none;stroke-width:0.871003;stroke-linecap:round;stroke-linejoin:miter;stroke-miterlimit:4;stroke-dasharray:none;stroke-dashoffset:0;stroke-opacity:1;color-rendering:auto;image-rendering:auto;shape-rendering:auto;text-rendering:auto;enable-background:accumulate;stop-color:#000000" d="m 89.836004,76.430198 c -2.922183,0 -5.30086,2.378677 -5.30086,5.30086 0,2.922183 2.378676,5.299509 5.30086,5.299509 2.922184,0 5.299061,-2.377326 5.29906,-5.299509 0,-2.922183 -2.376876,-5.30086 -5.29906,-5.30086 z m 0,0.871399 c 2.451459,0 4.428111,1.978003 4.428111,4.429461 10e-7,2.451458 -1.976651,4.428562 -4.428111,4.428562 -2.451459,0 -4.429911,-1.977104 -4.429911,-4.428562 0,-2.451458 1.978452,-4.429461 4.429911,-4.429461 z m -1.13876,0.91596 c -0.37039,0 -0.718982,0.06961 -1.039737,0.209746 l -0.09857,0.04276 0.231803,0.782727 0.120627,-0.04276 c 0.283387,-0.100189 0.533624,-0.149435 0.749422,-0.149435 0.120338,0 0.208124,0.03663 0.287616,0.116126 l 0.0014,0.0014 c 0.09067,0.088 0.158167,0.182194 0.204797,0.285817 v 0.0018 c 0.04628,0.10025 0.254064,0.596158 0.579732,1.387669 l -2.235661,3.99196 h 1.097351 l 1.586162,-2.920266 0.817387,1.983151 h -0.0014 c 0.156784,0.390428 0.351689,0.663319 0.604938,0.802083 h 0.0013 v 0.0018 c 0.231562,0.123711 0.473479,0.187242 0.719264,0.187242 h 0.08417 l 0.319123,-0.863748 -0.167889,-0.0063 c -0.321263,-0.01306 -0.532541,-0.172198 -0.685957,-0.53382 l -1.824716,-4.42181 c -0.1068,-0.254431 -0.25582,-0.46126 -0.447402,-0.614391 -0.2056,-0.17015 -0.509738,-0.241706 -0.903807,-0.241703 z" />
  </g>
</svg>
